<svg id="footerIcon1" xmlns="http://www.w3.org/2000/svg" fill="currentColor" focusable="false" role="" aria-hidden="true"><path d="M17.55 20.61H6.45l-2.4-4a10.82 10.82 0 0 0 2.76.39h10.38a13 13 0 0 0 1.39-.07 4.56 4.56 0 0 1 .17.9 2.62 2.62 0 0 1-.19 1.11c-.06.12-1 1.71-1 1.71ZM7.17 3.38h4.77c-.16.15-.32.32-.48.5a11.59 11.59 0 0 0-1.16 1.6l-5.24 8.64a11.51 11.51 0 0 0-.63 1.19 6.32 6.32 0 0 1-.87-.31 2.68 2.68 0 0 1-.9-.7c-.08-.11-1.07-1.7-1.07-1.7l5.58-9.22ZM12 5.52c.15.22 5.91 9.73 6.06 10H5.94c.18-.36 5.91-9.81 6.06-10Zm10.4 7.08L20 16.52q-.09-.3-.21-.63a10.71 10.71 0 0 0-.88-1.77l-5.16-8.59c-.25-.4-.49-.76-.74-1.09a4.78 4.78 0 0 1 .74-.59 2.7 2.7 0 0 1 1.08-.4h2.03ZM6.73 2a.74.74 0 0 0-.66.38l-6 9.88a.64.64 0 0 0 0 .68l5.26 8.7A.76.76 0 0 0 6 22h12a.77.77 0 0 0 .65-.36l5.26-8.7a.64.64 0 0 0 0-.68l-6-9.88a.76.76 0 0 0-.64-.38H6.73Z"/></svg>