<svg xmlns="http://www.w3.org/2000/svg" id="Logo_RGB" data-name="Logo RGB" viewBox="0 0 300 40">
  <g id="Wortmarke">
    <path id="Commerzbank" d="M10.4639,33.0593h0C4.6945,33.0593,0,28.6075,0,22.1582A10.8827,10.8827,0,0,1,10.7414,11.0563a9.7976,9.7976,0,0,1,7.2809,3.1054L15.04,17.2634a6.1461,6.1461,0,0,0-4.378-1.7914c-3.2619,0-5.5686,2.9087-5.5686,6.5679,0,3.7819,2.2675,6.602,5.6477,6.602a6.0459,6.0459,0,0,0,4.6558-1.9477L18.2611,29.64a9.824,9.824,0,0,1-7.7972,3.4194ZM30.89,28.7244h0c3.7378,0,6.0066-3.065,6.0066-6.6485,0-3.775-2.3479-6.682-6.0066-6.682-3.7405,0-6.0092,3.0667-6.0092,6.646,0,3.7819,2.3479,6.6845,6.0092,6.6845Zm-.0815,4.3349h0a10.5637,10.5637,0,0,1-10.94-10.9011,10.9808,10.9808,0,0,1,11.1-11.1019,10.5658,10.5658,0,0,1,10.94,10.9028,10.9763,10.9763,0,0,1-11.1,11.1Zm28.7547-.3965,3.581-11.6577c.6363-2.03,1.113-4.3359,1.113-4.3359h.0805s.04,2.3057.2388,4.6159l.955,11.3777h4.6923l-2.0662-21.244h-6.166l-3.2247,10.54c-.516,1.7142-1.0732,3.9021-1.0732,3.9021s-.5548-2.1879-1.1149-3.9415L53.3164,11.4188H47.03l-2.0679,21.244h4.4157l.9567-11.4586c.1974-2.2293.2369-4.535.2369-4.535h.079s.5178,2.3057,1.1534,4.4182L55.386,32.6628Zm29.64,0,3.58-11.6577c.6373-2.03,1.1156-4.3359,1.1156-4.3359h.0781s.0412,2.3057.2386,4.6159l.9549,11.3777h4.6957l-2.07-21.244H91.63l-3.221,10.54c-.5187,1.7142-1.0752,3.9021-1.0752,3.9021s-.5582-2.1879-1.1147-3.9415L82.9557,11.4188H76.6694l-2.0686,21.244h4.4165l.9559-11.4586c.1984-2.2293.2388-4.535.2388-4.535h.0789s.5161,2.3057,1.1533,4.4182l3.58,11.5754Zm15.747,0h13.8054V28.6075h-9.19V23.9506h7.7976V19.97h-7.7976V15.472h9.07V11.4188H104.95v21.244Zm29.7018-14.44h0c0-2.072-1.4323-2.8286-3.9013-2.8286h-1.9063v5.6548h1.9063c2.5893,0,3.9013-.8372,3.9013-2.8262Zm5.6894,14.44h-5.4893l-4.5367-7.7169h-1.471v7.7169h-4.6158V11.4188h6.3658c6.4048,0,8.8315,2.5048,8.8315,6.8037a6.0888,6.0888,0,0,1-4.2972,5.886l5.2127,8.5543Zm2.7257,0h14.7981V28.6075H148.874l8.7937-13.6858V11.4188H143.2671V15.472h8.59l-8.79,13.69v3.5Zm24.204-8.7509V28.685h3.4248c2.35,0,3.3819-.8365,3.3819-2.4664,0-1.6721-1.3147-2.3067-3.3819-2.3067Zm0-8.518V20.01h2.8683c1.472,0,2.7429-.6751,2.7429-2.3839,0-1.752-1.4727-2.232-2.94-2.232Zm-4.6124,17.2689V11.4188h7.3605c3.7013,0,7.7616.8347,7.7616,5.4505a4.7046,4.7046,0,0,1-3.54,4.693v.04a4.77,4.77,0,0,1,4.5326,4.9337c0,4.4182-4.2183,6.1273-7.9968,6.1273Zm22.3148,0h-4.66l7.5615-21.244h5.7271l7.5589,21.244h-4.97l-1.473-4.3352h-8.2767l-1.4677,4.3352Zm8.3936-8.313-1.87-5.6507c-.5153-1.5525-.9148-2.9841-.9148-2.9841s-.3992,1.4316-.9153,3.0238l-1.8722,5.611Zm10.6813,8.313h4.2989V22.5584c0-1.9089-.1193-3.8593-.1193-3.8593s.9952,1.7091,2.1057,3.3768l7.2008,10.5869h4.097V11.4188h-4.2964v9.63c0,1.9031.1236,3.8585.1236,3.8585s-.9977-1.7115-2.1107-3.386l-6.8814-10.1024h-4.4182v21.244ZM226.74,11.4188v21.244h4.6159V22.7166l6.8037,9.9462h5.6886l-7.7942-11.3777,7.04-9.8663h-5.3337l-6.4045,9.5493V11.4188Z" fill="#fff"/>
    <path id="Bildmarke" d="M290.0079,30.9873c-.0187-.1505-.029-.2459-.0452-.387-.024-.21-.0574-.4362-.0793-.5941-.0283-.2042-.0934-.5772-.14-.799a.0391.0391,0,0,0-.0388-.03h-12.7s-10.3353-.0006-11.7169-.0015c-.0971,0-.1866-.0008-.2039-.0011a14.0275,14.0275,0,0,1-7.9853-2.6664.04.04,0,0,0-.0577.0526l7.746,13.4188a.04.04,0,0,0,.0347.02h22.8457a.04.04,0,0,0,.0327-.0167,12.733,12.733,0,0,0,2.3648-8.4163C290.05,31.3738,290.0319,31.1805,290.0079,30.9873ZM288.35,1.0974a.04.04,0,0,0-.0316-.02q-.5086-.0418-1.02-.0415h0a12.426,12.426,0,0,0-6.1721,1.6465A12.6041,12.6041,0,0,0,278.4868,4.67q-.1418.1394-.2789.2832a.04.04,0,0,0-.0057.0476c.4435.769,10.6254,18.4239,12.1339,21.0518a13.326,13.326,0,0,1,1.0416,10.0121.04.04,0,0,0,.0732.0305l8.5437-14.7936a.04.04,0,0,0,0-.04ZM266.2688.02,254.2861,20.7768a.04.04,0,0,0,.0009.0414,23.0559,23.0559,0,0,0,2.1958,2.9474,12.6326,12.6326,0,0,0,4.029,2.717,11.75,11.75,0,0,0,2.4117.7633.04.04,0,0,0,.0423-.0191c.4592-.7949,11.9224-20.6407,11.9564-20.6993a14.323,14.323,0,0,1,7.901-6.45A.04.04,0,0,0,282.8106,0H266.3035A.04.04,0,0,0,266.2688.02Z" fill="#fff"/>
  </g>
</svg>