<svg id="instagram" xmlns="http://www.w3.org/2000/svg" fill="currentColor" focusable="false" role="" aria-hidden="true" viewBox="2 2 20 20"><path d="M20 2H4a2 2 0 0 0-2 2v16a2 2 0 0 0 2 2h16a2 2 0 0 0 2-2V4a2 2 0 0 0-2-2zm-.62 13.13a4.26 4.26 0 0 1-4.26 4.25H8.88a4.26 4.26 0 0 1-4.26-4.25V8.87a4.26 4.26 0 0 1 4.26-4.25h6.24a4.26 4.26 0 0 1 4.26 4.25v6.26z"/><path d="M15.12 5.88H8.88a3 3 0 0 0-3 3v6.26a3 3 0 0 0 3 3h6.24a3 3 0 0 0 3-3V8.87a3 3 0 0 0-3-2.99zM12 15.62a3.62 3.62 0 1 1 0-7.24 3.62 3.62 0 0 1 0 7.24zm4-6.74a.88.88 0 1 1 .88-.88.89.89 0 0 1-.88.88z"/><path d="M12 14.38a2.38 2.38 0 1 0 0-4.76 2.38 2.38 0 0 0 0 4.76z"/></svg>