<svg version="1.2" xmlns="http://www.w3.org/2000/svg" viewBox="0 0 1552 1035" width="1552" height="1035">
	<title>logo</title>
	<defs>
		<radialGradient id="g1" cx="0" cy="0" r="1" gradientUnits="userSpaceOnUse" gradientTransform="matrix(690.718,0,0,690.718,880.928,-0.919)">
			<stop offset="0" stop-color="#ffef19"/>
			<stop offset=".246" stop-color="#ffdf08"/>
			<stop offset=".44" stop-color="#ffd700"/>
			<stop offset=".588" stop-color="#fdd401"/>
			<stop offset=".713" stop-color="#f7c903"/>
			<stop offset=".829" stop-color="#ecb808"/>
			<stop offset=".9" stop-color="#e3a90b"/>
			<stop offset="1" stop-color="#d98b07"/>
		</radialGradient>
		<radialGradient id="g2" cx="0" cy="0" r="1" gradientUnits="userSpaceOnUse" gradientTransform="matrix(686.45,0,0,686.45,383.693,504.795)">
			<stop offset="0" stop-color="#ffef19"/>
			<stop offset=".246" stop-color="#ffdf08"/>
			<stop offset=".44" stop-color="#ffd700"/>
			<stop offset=".588" stop-color="#fdd401"/>
			<stop offset=".713" stop-color="#f7c903"/>
			<stop offset=".829" stop-color="#ecb808"/>
			<stop offset=".9" stop-color="#e3a90b"/>
			<stop offset="1" stop-color="#d98b07"/>
		</radialGradient>
		<radialGradient id="g3" cx="0" cy="0" r="1" gradientUnits="userSpaceOnUse" gradientTransform="matrix(690.161,0,0,690.161,1064.168,684.834)">
			<stop offset="0" stop-color="#ffef19"/>
			<stop offset=".246" stop-color="#ffdf08"/>
			<stop offset=".44" stop-color="#ffd700"/>
			<stop offset=".588" stop-color="#fdd401"/>
			<stop offset=".713" stop-color="#f7c903"/>
			<stop offset=".829" stop-color="#ecb808"/>
			<stop offset=".9" stop-color="#e3a90b"/>
			<stop offset="1" stop-color="#d98b07"/>
		</radialGradient>
	</defs>
	<style>
		.s0 { fill: #ffffff } 
		.s1 { fill: url(#g1) } 
		.s2 { fill: url(#g2) } 
		.s3 { fill: url(#g3) } 
	</style>
	<g id="BoundingBox">
	</g>
	<g id="Logo">
		<path id="Commerzbank_16_" class="s0" d="m66.7 1034.9c-36.7 0-66.6-28.4-66.6-69.4 0-39.3 30.4-70.7 68.4-70.7 18.7 0 35.2 7.6 46.3 19.8l-19 19.7c-7.6-7.3-16.9-11.4-27.8-11.4-20.8 0-35.5 18.5-35.5 41.8 0 24.1 14.5 42.1 36 42.1 12.4 0 22-4.3 29.6-12.4l18.2 18.7c-12.4 14.2-28.6 21.8-49.6 21.8zm129.5 0c-41 0-69.6-29.9-69.6-69.4 0-39 30.3-70.7 70.6-70.7 41 0 69.6 29.9 69.6 69.4 0 39-30.4 70.7-70.6 70.7zm0.5-27.6c23.8 0 38.2-19.5 38.2-42.3 0-24.1-14.9-42.6-38.2-42.6-23.8 0-38.2 19.5-38.2 42.3 0 24.1 14.9 42.6 38.2 42.6zm182.5 25l22.8-74.2c4-12.9 7-27.6 7-27.6h0.5c0 0 0.3 14.7 1.6 29.4l6 72.4h29.9l-13.2-135.2h-39.2l-20.5 67.1c-3.3 10.9-6.8 24.8-6.8 24.8 0 0-3.6-13.9-7.1-25l-20.8-66.9h-40l-13.1 135.2h28l6.1-72.9c1.3-14.2 1.5-28.9 1.5-28.9h0.6c0 0 3.2 14.7 7.3 28.2l22.8 73.6zm188.6 0l22.8-74.2c4-12.9 7.1-27.6 7.1-27.6h0.5c0 0 0.2 14.7 1.5 29.4l6.1 72.4h29.8l-13.1-135.2h-39.3l-20.5 67.1c-3.3 10.9-6.8 24.8-6.8 24.8 0 0-3.6-13.9-7.1-25l-20.8-66.9h-40l-13.1 135.2h28.1l6.1-72.9c1.2-14.2 1.5-28.9 1.5-28.9h0.5c0 0 3.3 14.7 7.3 28.2l22.8 73.6zm100.2 0h87.8v-25.8h-58.4v-29.6h49.6v-25.3h-49.6v-28.7h57.7v-25.8h-87.1zm225.2 0h-34.9l-28.9-49.1h-9.4v49.1h-29.3v-135.2h40.5c40.7 0 56.2 15.9 56.2 43.3 0 17.5-9.9 30.9-27.4 37.5zm-36.2-92c0-13.2-9.1-18-24.8-18h-12.1v36h12.1c16.5 0 24.8-5.3 24.8-18zm53.6 92h94.1v-25.9h-57.2l56-87.1v-22.3h-91.6v25.8h54.6l-55.9 87.2zm124.6 0v-135.3h46.9c23.5 0 49.4 5.4 49.4 34.7 0 15-8.7 25.6-22.5 29.9v0.3c17.7 2.2 28.8 13.9 28.8 31.4 0 28.1-26.8 39-50.9 39zm29.4-110v29.4h18.2c9.4 0 17.5-4.3 17.5-15.1 0-11.2-9.4-14.3-18.7-14.3zm0 54.3v30.4h21.8c14.9 0 21.5-5.4 21.5-15.7 0-10.7-8.4-14.7-21.5-14.7zm112.6 55.7h-29.7l48.2-135.3h36.4l48.1 135.3h-31.6l-9.4-27.6h-52.7zm53.5-52.9l-11.9-36c-3.3-9.9-5.9-19-5.9-19 0 0-2.5 9.1-5.8 19.2l-11.9 35.8zm68 52.9h27.3v-64.3c0-12.2-0.7-24.6-0.7-24.6 0 0 6.3 10.9 13.4 21.5l45.8 67.4h26.1v-135.3h-27.4v61.4c0 12.1 0.8 24.5 0.8 24.5 0 0-6.3-10.9-13.4-21.5l-43.8-64.4h-28.1zm144.4-135.2v135.2h29.3v-63.3l43.3 63.3h36.2l-49.6-72.4 44.8-62.8h-33.9l-40.8 60.8v-60.8z"/>
	</g>
	<g id="Ribbon_Gradients">
		<path class="s1" d="m900 0h-8-16.7-306.8c-0.3 0-0.5 0.2-0.7 0.4l-237.9 412.2c-0.1 0.3-0.1 0.6 0 0.8l169.1 293.1c-0.6-2.1-1.8-4.3-1.8-4.3-3.5-6.7-6.2-11.8-7.6-15.1-6.9-15.8-11-37.7-9.8-59 2.8-56.2 30.8-111.6 45.8-137.6 35.3-61 103.4-179 103.4-179 0 0 68.1-118 103.2-179 8.7-15.1 23.6-39.5 43.8-63.3l0.6 0.7c0 0 0.8-0.8 0.8-0.9 14.5-17 31.7-33.8 51.4-46.5 18-11.6 39-19.1 56.2-21 5.7-0.7 14.8-1.5 14.8-1.5"/>
		<path class="s2" d="m1187.5 472.8c-8 13.3-14.1 23.2-17.5 27.8-10.2 13.9-27.2 28.4-46.2 38.1-50.1 25.7-112.9 27.5-142.9 27.5-70.5 0-204.9 0-204.9 0 0 0-136.2 0-206.7 0-29.9 0-91.1-1.8-141.1-27.5-19-9.7-36-24.2-46.3-38.1-3.3-4.6-7.7-10.4-7.7-10.4l164.9 285.7c0.1 0.2 0.3 0.3 0.6 0.3h472.4c0.3 0 0.6-0.1 0.7-0.3l175.6-304.2c0 0-0.4 0.1-0.9 1.1z"/>
		<path class="s3" d="m983.5 0h-85c0 0-9.1 0.8-14.8 1.5-17.2 1.9-38.2 9.4-56.2 21-19.7 12.7-37 29.5-51.5 46.7 20.2 23.8 35 48.2 43.7 63.3 35.2 61 103.4 179 103.4 179 0 0 68 118 103.2 179 15 26 43.1 81.4 45.9 137.6 1 19.3-2.2 39.1-8 54.5l-5 12.9 162.9-282.1c0.1-0.3 0.1-0.6 0-0.8l-238-412.2c-0.1-0.2-0.4-0.4-0.6-0.4z"/>
	</g>
</svg>