<svg version="1.2" xmlns="http://www.w3.org/2000/svg" viewBox="0 0 1550 1348" width="1550" height="1348">
	<title>CBK</title>
	<defs>
		<radialGradient id="g1" cx="0" cy="0" r="1" gradientUnits="userSpaceOnUse" gradientTransform="matrix(1199.099,0,0,1199.099,957.157,-1.596)">
			<stop offset="0" stop-color="#ffef19"/>
			<stop offset=".246" stop-color="#ffdf08"/>
			<stop offset=".44" stop-color="#ffd700"/>
			<stop offset=".588" stop-color="#fdd401"/>
			<stop offset=".713" stop-color="#f7c903"/>
			<stop offset=".829" stop-color="#ecb808"/>
			<stop offset=".9" stop-color="#e3a90b"/>
			<stop offset="1" stop-color="#d98b07"/>
		</radialGradient>
		<radialGradient id="g2" cx="0" cy="0" r="1" gradientUnits="userSpaceOnUse" gradientTransform="matrix(1191.689,0,0,1191.689,93.948,876.407)">
			<stop offset="0" stop-color="#ffef19"/>
			<stop offset=".246" stop-color="#ffdf08"/>
			<stop offset=".44" stop-color="#ffd700"/>
			<stop offset=".588" stop-color="#fdd401"/>
			<stop offset=".713" stop-color="#f7c903"/>
			<stop offset=".829" stop-color="#ecb808"/>
			<stop offset=".9" stop-color="#e3a90b"/>
			<stop offset="1" stop-color="#d98b07"/>
		</radialGradient>
		<radialGradient id="g3" cx="0" cy="0" r="1" gradientUnits="userSpaceOnUse" gradientTransform="matrix(1198.132,0,0,1198.132,1275.265,1188.985)">
			<stop offset="0" stop-color="#ffef19"/>
			<stop offset=".246" stop-color="#ffdf08"/>
			<stop offset=".44" stop-color="#ffd700"/>
			<stop offset=".588" stop-color="#fdd401"/>
			<stop offset=".713" stop-color="#f7c903"/>
			<stop offset=".829" stop-color="#ecb808"/>
			<stop offset=".9" stop-color="#e3a90b"/>
			<stop offset="1" stop-color="#d98b07"/>
		</radialGradient>
	</defs>
	<style>
		.s0 { fill: url(#g1) } 
		.s1 { fill: url(#g2) } 
		.s2 { fill: url(#g3) } 
	</style>
	<g id="Ribbon_Gradients">
		<path class="s0" d="m990.3 0h-13.9-29-532.6c-0.5 0-0.9 0.3-1.2 0.7l-413 715.6c-0.2 0.6-0.2 1.1 0 1.4l293.5 508.9c-1-3.6-3.1-7.5-3.1-7.5-6.1-11.6-10.8-20.5-13.2-26.2-12-27.4-19.1-65.4-17-102.4 4.9-97.6 53.5-193.8 79.5-238.9 61.3-105.9 179.5-310.8 179.5-310.8 0 0 118.2-204.9 179.2-310.8 15.1-26.2 40.9-68.5 76-109.9l1 1.3c0 0 1.4-1.4 1.4-1.6 25.2-29.5 55.1-58.7 89.3-80.7 31.2-20.2 67.7-33.2 97.5-36.5 9.9-1.2 25.7-2.6 25.7-2.6"/>
		<path class="s1" d="m1489.4 820.9c-13.9 23-24.5 40.2-30.4 48.2-17.7 24.2-47.2 49.3-80.2 66.2-87 44.6-196 47.7-248.1 47.7-122.4 0-355.7 0-355.7 0 0 0-236.4 0-358.8 0-51.9 0-158.2-3.1-245-47.7-33-16.9-62.5-42-80.4-66.2-5.7-8-13.3-18-13.3-18l286.2 496q0.3 0.5 1.1 0.5h820.1c0.5 0 1-0.2 1.2-0.5l304.8-528.2c0 0-0.7 0.2-1.5 2z"/>
		<path class="s2" d="m1135.2 0h-147.5c0 0-15.8 1.4-25.7 2.6-29.9 3.3-66.3 16.3-97.6 36.5-34.2 22-64.2 51.2-89.4 81 35.1 41.4 60.8 83.7 75.9 109.9 61.1 105.9 179.5 310.8 179.5 310.8 0 0 118 204.9 179.1 310.8 26.1 45.1 74.8 141.3 79.7 238.9 1.7 33.5-3.8 67.9-13.9 94.6l-8.7 22.4 282.8-489.8c0.2-0.5 0.2-1 0-1.4l-413.1-715.6c-0.2-0.4-0.7-0.7-1.1-0.7z"/>
	</g>
</svg>